<?xml version="1.0" encoding="UTF-8"?>
<svg width="68.68" height="88.926" version="1.1" viewBox="0 0 68.68 88.926" xmlns="http://www.w3.org/2000/svg" xmlns:cc="http://creativecommons.org/ns#" xmlns:dc="http://purl.org/dc/elements/1.1/" xmlns:rdf="http://www.w3.org/1999/02/22-rdf-syntax-ns#">
 <metadata>
  <rdf:RDF>
   <cc:Work rdf:about="">
    <dc:format>image/svg+xml</dc:format>
    <dc:type rdf:resource="http://purl.org/dc/dcmitype/StillImage"/>
    <dc:title/>
   </cc:Work>
  </rdf:RDF>
 </metadata>
 <ellipse cx="35.096" cy="86.893" rx="10.076" ry="2.0329" fill="#333" fill-opacity=".0837" style="paint-order:stroke fill markers"/>
 <path d="m34.176 0.0021277a6.3277 6.3277 0 0 0-4.0371 1.5938l-26.053 23.26c-2.603 2.3237-4.0859 5.6177-4.0859 9.0723v31.369c0 3.3836 2.7964 6.1312 6.2441 6.1289h17.025l8.4746 14.109c0.29988 0.51795 0.76478 0.92639 1.3945 1.2246s1.3057 0.44726 2.0254 0.44726c0.71972 0 1.3937-0.14905 2.0234-0.44726s1.104-0.70666 1.4238-1.2246l8.4512-14.109h15.375c3.4477 0 6.2422-2.7466 6.2422-6.1348v-31.363a12.166 12.166 0 0 0-4.0859-9.0723l-26.053-23.26a6.3277 6.3277 0 0 0-4.3652-1.5938z" fill="#FF385C"/>
 <g fill="#fff" fill-rule="evenodd">
  <path d="m35.234 53.751c8.1436-1.6088 14.465-5.3155 16.749-10.254-1.2575 9.7525-9.3788 17.278-19.211 17.278-6.9239 0-12.999-3.7326-16.426-9.3457 4.0884 3.1971 11.296 3.8213 18.888 2.3214z"/>
  <path d="m40.881 32.903c0 3.0787 1.6637 5.5743 3.7162 5.5743 2.0525 0 3.7162-2.4957 3.7162-5.5743s-1.6637-5.5743-3.7162-5.5743c-2.0525 0-3.7162 2.4957-3.7162 5.5743z"/>
  <path d="m24.145 37.679c3.0787 0 5.5743-1.0448 5.5743-2.3339 0-1.289-2.4957-2.3339-5.5743-2.3339s-5.5743 1.0448-5.5743 2.3339c0 1.289 2.4957 2.3339 5.5743 2.3339z"/>
 </g>
</svg>