<?xml version="1.0" encoding="UTF-8"?>
<svg width="68.68" height="71.425" version="1.1" viewBox="0 0 68.68 71.425" xmlns="http://www.w3.org/2000/svg" xmlns:cc="http://creativecommons.org/ns#" xmlns:dc="http://purl.org/dc/elements/1.1/" xmlns:rdf="http://www.w3.org/1999/02/22-rdf-syntax-ns#">
 <metadata>
  <rdf:RDF>
   <cc:Work rdf:about="">
    <dc:format>image/svg+xml</dc:format>
    <dc:type rdf:resource="http://purl.org/dc/dcmitype/StillImage"/>
    <dc:title/>
   </cc:Work>
  </rdf:RDF>
 </metadata>
 <path d="m-0.093584 33.928c0-3.4546 1.4835-6.749 4.0865-9.0726l26.053-23.26a6.3277 6.3277 0 0 1 8.4019 0l26.053 23.26a12.166 12.166 0 0 1 4.0865 9.0726v31.364c0 3.3882-2.7953 6.1331-6.243 6.1331h-56.194c-3.4477 0.0023-6.243-2.7449-6.243-6.1285z" fill="#ff385c"/>
 <g fill="#fff" fill-rule="evenodd">
  <path d="m35.14 53.751c8.1436-1.6088 14.465-5.3155 16.749-10.254-1.2575 9.7525-9.3788 17.278-19.211 17.278-6.9239 0-12.999-3.7326-16.426-9.3457 4.0884 3.1971 11.296 3.8213 18.888 2.3214z"/>
  <path d="m40.788 32.903c0 3.0787 1.6637 5.5743 3.7162 5.5743 2.0525 0 3.7162-2.4957 3.7162-5.5743s-1.6637-5.5743-3.7162-5.5743c-2.0525 0-3.7162 2.4957-3.7162 5.5743z"/>
  <path d="m24.051 37.679c3.0787 0 5.5743-1.0448 5.5743-2.3339 0-1.289-2.4957-2.3339-5.5743-2.3339s-5.5743 1.0448-5.5743 2.3339c0 1.289 2.4957 2.3339 5.5743 2.3339z"/>
 </g>
</svg>